HIERARCHY
ROOT Hips
{
	OFFSET 56.877701 -32.693596 43.373703
	CHANNELS 6 Xposition Yposition Zposition Zrotation Xrotation Yrotation
	JOINT Chest
	{
		OFFSET -0.779999 1.005800 5.403099
		CHANNELS 6 Xposition Yposition Zposition Zrotation Xrotation Yrotation
		JOINT Chest2
		{
			OFFSET 0.000000 0.000000 4.236801
			CHANNELS 6 Xposition Yposition Zposition Zrotation Xrotation Yrotation
			JOINT Neck
			{
				OFFSET 0.000000 0.000000 9.874401
				CHANNELS 6 Xposition Yposition Zposition Zrotation Xrotation Yrotation
				JOINT Head
				{
					OFFSET 0.000000 0.000002 2.173893
					CHANNELS 6 Xposition Yposition Zposition Zrotation Xrotation Yrotation
					End Site
					{
						OFFSET 0.000000 0.000000 6.508102
					}
				}
			}
			JOINT LeftCollar
			{
				OFFSET 2.681599 -0.377600 5.432499
				CHANNELS 6 Xposition Yposition Zposition Zrotation Xrotation Yrotation
				JOINT LeftShoulder
				{
					OFFSET 5.161499 0.000000 0.000000
					CHANNELS 6 Xposition Yposition Zposition Zrotation Xrotation Yrotation
					JOINT LeftElbow
					{
						OFFSET 0.000000 0.000000 -10.869099
						CHANNELS 6 Xposition Yposition Zposition Zrotation Xrotation Yrotation
						JOINT LeftWrist
						{
							OFFSET 0.000000 0.000000 -13.344799
							CHANNELS 6 Xposition Yposition Zposition Zrotation Xrotation Yrotation
							End Site
							{
								OFFSET 0.000000 0.000000 -2.173901
							}
						}
					}
				}
			}
			JOINT RightCollar
			{
				OFFSET -2.381901 -1.419600 6.136600
				CHANNELS 6 Xposition Yposition Zposition Zrotation Xrotation Yrotation
				JOINT RightShoulder
				{
					OFFSET -4.550499 0.000000 0.000000
					CHANNELS 6 Xposition Yposition Zposition Zrotation Xrotation Yrotation
					JOINT RightElbow
					{
						OFFSET 0.000000 0.000000 -11.106499
						CHANNELS 6 Xposition Yposition Zposition Zrotation Xrotation Yrotation
						JOINT RightWrist
						{
							OFFSET 0.000000 0.000000 -12.874298
							CHANNELS 6 Xposition Yposition Zposition Zrotation Xrotation Yrotation
							End Site
							{
								OFFSET 0.000000 0.000000 -2.173901
							}
						}
					}
				}
			}
		}
	}
	JOINT LeftHip
	{
		OFFSET 2.431900 0.469601 -2.489399
		CHANNELS 6 Xposition Yposition Zposition Zrotation Xrotation Yrotation
		JOINT LeftKnee
		{
			OFFSET 0.000000 -0.000004 -18.200201
			CHANNELS 6 Xposition Yposition Zposition Zrotation Xrotation Yrotation
			JOINT LeftAnkle
			{
				OFFSET 0.000000 0.000000 -16.279900
				CHANNELS 6 Xposition Yposition Zposition Zrotation Xrotation Yrotation
				End Site
				{
					OFFSET 0.000000 -8.394100 0.000000
				}
			}
		}
	}
	JOINT RightHip
	{
		OFFSET -1.987999 -0.073502 -2.713001
		CHANNELS 6 Xposition Yposition Zposition Zrotation Xrotation Yrotation
		JOINT RightKnee
		{
			OFFSET 0.000000 -0.000004 -19.547802
			CHANNELS 6 Xposition Yposition Zposition Zrotation Xrotation Yrotation
			JOINT RightAnkle
			{
				OFFSET 0.000000 0.000000 -14.881199
				CHANNELS 6 Xposition Yposition Zposition Zrotation Xrotation Yrotation
				End Site
				{
					OFFSET 0.000000 -7.922699 0.000000
				}
			}
		}
	}
}
MOTION
Frames: 8
Frame Time: 0.041667
50.344204 -40.113697 42.502602 1797.592900 11.350780 -2.854416 -0.779991 1.005803 5.403095 3.384660 -13.774239 2.555232 0.000003 -0.000003 4.236800 1.033178 -0.672856 0.704497 0.000000 0.000002 9.874405 63.043910 0.842206 -15.596964 0.000002 -0.000001 2.173896 5.101587 1.766679 9.977313 2.681594 -0.377589 5.432506 5.926156 -3.975250 -0.438253 5.161508 -0.000000 -0.000005 186.229438 -100.696673 106.092536 -0.000001 0.000006 -10.869104 66.351074 -10.190394 16.859653 -0.000012 -0.000004 -13.344810 10.256171 -12.528058 -26.813871 -2.381917 -1.419596 6.136600 -0.678254 -28.880089 52.019718 -4.550497 -0.000003 0.000009 -801.755035 -481.808757 -373.644187 -0.000007 -0.000013 -11.106483 -118.322891 -61.443644 -120.365459 -0.000007 0.000003 -12.874293 -777.682060 -2.722526 -9.117784 2.431907 0.469606 -2.489408 29.621936 -31.278732 17.146145 0.000000 -0.000003 -18.200203 -8.858911 58.439064 -1.387049 0.000005 -0.000009 -16.279902 -8.069729 21.800470 -21.960434 -1.987995 -0.073496 -2.713015 -85.784055 -46.282222 -54.073692 -0.000003 0.000000 -19.547794 -749.134438 133.101549 25.187520 -0.000003 0.000004 -14.881192 563.436839 120.511926 114.815958
50.362099 -40.119797 42.432899 1797.591480 11.515018 -2.909360 -0.780002 1.005804 5.403094 3.411737 -13.848625 2.490367 0.000003 -0.000001 4.236800 1.057559 -0.655559 0.720774 -0.000005 0.000004 9.874399 63.213490 1.075579 -15.339456 -0.000001 0.000006 2.173885 5.045707 1.818188 9.991524 2.681592 -0.377593 5.432499 6.068329 -4.048908 -0.227896 5.161504 0.000003 -0.000002 186.402556 -100.605306 106.379793 -0.000006 0.000004 -10.869102 66.360711 -10.287851 17.068952 -0.000011 0.000002 -13.344803 10.183673 -12.519654 -26.805024 -2.381918 -1.419598 6.136600 -0.423192 -28.972255 52.562448 -4.550514 -0.000005 0.000014 -802.225444 -481.694119 -374.102629 0.000002 -0.000003 -11.106495 -118.631589 -61.504638 -120.519275 -0.000003 -0.000007 -12.874299 -777.762602 -2.715191 -9.075669 2.431899 0.469601 -2.489402 29.984308 -31.540133 17.692179 0.000002 -0.000006 -18.200199 -9.452326 58.898135 -1.285011 0.000004 -0.000007 -16.279900 -7.436550 21.625050 -22.397322 -1.987996 -0.073496 -2.713001 -86.433612 -46.234667 -54.275296 -0.000007 -0.000002 -19.547792 -749.539878 133.385357 25.422341 0.000003 0.000007 -14.881192 563.121230 120.638257 114.864985
50.380699 -40.125195 42.366302 1797.579240 11.684730 -2.945194 -0.779989 1.005796 5.403093 3.443472 -13.916781 2.423023 -0.000008 0.000001 4.236802 1.029433 -0.645043 0.729859 -0.000003 0.000007 9.874403 63.453728 1.261450 -15.078138 0.000004 0.000002 2.173885 5.038405 1.649752 10.056022 2.681597 -0.377592 5.432503 6.257968 -4.162644 -0.079531 5.161519 -0.000004 0.000005 186.303300 -100.460437 106.272423 0.000005 0.000007 -10.869091 66.252159 -10.221080 17.173846 -0.000010 0.000001 -13.344805 10.143213 -12.651473 -26.689400 -2.381911 -1.419603 6.136597 -0.212200 -29.078448 52.963957 -4.550512 -0.000006 0.000014 -802.480346 -481.657564 -374.337315 -0.000007 -0.000014 -11.106496 -118.712280 -61.455529 -120.556350 -0.000003 -0.000004 -12.874300 -777.762165 -2.697222 -9.034322 2.431903 0.469595 -2.489408 30.388622 -31.797444 18.239516 0.000003 -0.000003 -18.200209 -10.135775 59.357950 -1.131800 0.000006 -0.000001 -16.279896 -6.978093 21.465944 -22.744868 -1.987995 -0.073500 -2.713013 -87.089379 -46.191097 -54.518683 -0.000005 0.000006 -19.547791 -750.011106 133.728779 25.713362 -0.000008 0.000001 -14.881196 562.618473 120.792565 114.982929
50.400600 -40.131100 42.302605 1797.567656 11.866151 -2.967612 -0.780008 1.005800 5.403093 3.478318 -14.042089 2.328658 -0.000004 -0.000005 4.236796 0.987578 -0.612314 0.744220 0.000001 0.000003 9.874399 63.702647 1.480106 -14.850843 0.000002 0.000002 2.173891 4.990915 1.684199 10.196518 2.681600 -0.377601 5.432502 6.328739 -4.197719 0.076111 5.161506 -0.000002 0.000004 186.636736 -100.234877 106.487355 0.000002 -0.000003 -10.869102 66.321902 -10.119986 17.331076 -0.000005 -0.000002 -13.344803 9.875109 -12.809572 -26.617596 -2.381911 -1.419603 6.136599 0.060165 -29.047292 53.431084 -4.550503 -0.000001 0.000014 -802.641484 -481.552160 -374.321414 0.000005 -0.000006 -11.106499 -118.734670 -61.429369 -120.639610 -0.000002 -0.000006 -12.874298 -777.833199 -2.674975 -9.000551 2.431894 0.469603 -2.489399 30.800864 -32.050198 18.756333 -0.000002 -0.000003 -18.200207 -10.847526 59.787555 -0.923506 -0.000000 0.000003 -16.279898 -6.490517 21.269510 -23.024364 -1.988004 -0.073499 -2.713005 -87.810271 -46.130783 -54.823627 -0.000012 -0.000001 -19.547798 -750.351195 134.026398 25.893467 0.000003 0.000007 -14.881195 562.059545 120.811621 115.390992
50.419605 -40.139091 42.243698 1797.563284 12.051806 -2.983077 -0.779994 1.005798 5.403095 3.500869 -14.186911 2.286986 0.000001 -0.000002 4.236794 0.906403 -0.584168 0.742994 0.000001 0.000005 9.874403 63.986537 1.594353 -14.692145 -0.000001 0.000003 2.173893 4.945489 1.661533 10.361082 2.681595 -0.377597 5.432504 6.385289 -4.255945 0.103243 5.161501 0.000003 -0.000009 187.737981 -100.149069 107.352467 0.000004 -0.000005 -10.869097 66.300762 -10.078807 17.557285 -0.000006 0.000008 -13.344805 9.791832 -12.947329 -26.607077 -2.381913 -1.419601 6.136595 0.218933 -28.943347 53.590730 -4.550507 -0.000002 0.000010 -802.276697 -481.609370 -373.769262 0.000004 -0.000016 -11.106487 -118.451094 -61.369304 -120.633872 0.000002 -0.000006 -12.874303 -777.898332 -2.653436 -8.973303 2.431903 0.469597 -2.489399 31.210054 -32.291106 19.228963 -0.000004 -0.000004 -18.200203 -11.626900 60.190817 -0.614657 0.000002 0.000001 -16.279898 -6.090951 21.063569 -23.196917 -1.987988 -0.073503 -2.713009 -88.453566 -46.101714 -55.057923 -0.000012 0.000002 -19.547802 -750.615988 134.190117 25.885923 -0.000004 0.000000 -14.881197 561.573017 120.636399 116.175698
50.437004 -40.148598 42.188705 1797.559897 12.244582 -3.003902 -0.780000 1.005798 5.403093 3.525580 -14.381201 2.292778 -0.000008 0.000002 4.236800 0.811005 -0.559700 0.734860 0.000000 0.000001 9.874392 64.249165 1.653065 -14.617440 0.000005 0.000003 2.173893 4.889298 1.655310 10.563332 2.681607 -0.377597 5.432496 6.394719 -4.285427 0.068821 5.161509 0.000009 0.000002 188.340171 -100.216224 107.799257 -0.000005 -0.000006 -10.869103 66.176378 -10.200762 17.608772 -0.000002 0.000000 -13.344791 10.032032 -13.025709 -26.678420 -2.381905 -1.419601 6.136592 0.392116 -28.608816 53.654735 -4.550501 -0.000002 0.000005 -801.881858 -481.713626 -372.981058 0.000000 -0.000005 -11.106486 -118.098807 -61.238581 -120.607112 -0.000004 -0.000004 -12.874297 -777.915161 -2.634791 -8.952958 2.431901 0.469597 -2.489397 31.818733 -32.492265 19.751865 0.000001 -0.000002 -18.200203 -12.465029 60.583027 -0.311211 0.000001 -0.000000 -16.279896 -5.861327 20.867333 -23.280077 -1.987995 -0.073497 -2.713007 -88.954342 -46.173404 -55.182348 -0.000011 0.000008 -19.547791 -750.874989 134.188847 25.714544 0.000003 0.000004 -14.881196 561.240250 120.272542 117.298090
50.451805 -40.160294 42.138405 1797.543941 12.416194 -3.016413 -0.779992 1.005803 5.403092 3.553873 -14.505075 2.298083 0.000001 -0.000008 4.236804 0.744914 -0.574642 0.727095 0.000003 0.000009 9.874404 64.466638 1.659204 -14.484697 -0.000002 0.000000 2.173885 4.816701 1.652091 10.684984 2.681604 -0.377597 5.432500 6.446236 -4.306924 0.058251 5.161501 0.000005 0.000000 188.713455 -100.333566 107.982750 0.000001 0.000004 -10.869087 66.208493 -10.190973 17.721402 -0.000003 0.000001 -13.344797 10.184950 -13.044676 -26.912586 -2.381902 -1.419598 6.136598 0.436179 -28.553695 53.700037 -4.550501 -0.000003 0.000011 -801.382544 -481.755645 -372.347489 0.000000 -0.000011 -11.106498 -117.657781 -61.007502 -120.493362 -0.000001 -0.000014 -12.874306 -777.843253 -2.623998 -8.935829 2.431905 0.469604 -2.489405 32.117728 -32.686140 20.072254 0.000007 -0.000007 -18.200203 -13.174853 60.863788 0.092133 0.000003 -0.000002 -16.279902 -5.621407 20.684830 -23.259478 -1.987991 -0.073503 -2.713011 -89.536588 -46.130360 -55.339036 0.000001 -0.000001 -19.547794 -746.895229 132.612330 21.845482 0.000003 0.000004 -14.881195 563.408316 119.295196 119.568568
50.465401 -40.173496 42.091305 1797.514654 12.563387 -3.055865 -0.779997 1.005798 5.403098 3.601932 -14.624400 2.355849 0.000010 0.000000 4.236799 0.682817 -0.581212 0.719539 -0.000001 0.000008 9.874406 64.651292 1.655429 -14.384997 0.000003 0.000005 2.173895 4.750394 1.625144 10.796117 2.681605 -0.377596 5.432503 6.479964 -4.315983 0.072859 5.161499 -0.000007 0.000003 189.207701 -100.215418 108.285621 -0.000005 0.000003 -10.869098 66.183126 -10.136556 17.869810 -0.000012 0.000003 -13.344798 10.111418 -12.997238 -27.274701 -2.381907 -1.419594 6.136597 0.471162 -28.430510 53.740031 -4.550495 0.000004 0.000013 -800.849297 -481.763459 -371.632505 0.000004 -0.000004 -11.106488 -117.265892 -60.787734 -120.428352 -0.000004 -0.000008 -12.874308 -777.784786 -2.629200 -8.922962 2.431900 0.469603 -2.489399 32.366648 -32.831855 20.338218 0.000006 -0.000014 -18.200207 -13.672200 61.066802 0.403750 0.000005 -0.000006 -16.279900 -5.449921 20.555502 -23.262224 -1.987995 -0.073499 -2.713005 -90.053189 -46.091766 -55.407840 -0.000008 -0.000001 -19.547794 -747.626988 132.743115 22.173791 0.000001 0.000004 -14.881191 563.152703 118.909086 120.482584
